<?xml version="1.0" encoding="UTF-8"?>
<svg xmlns="http://www.w3.org/2000/svg" xml:space="preserve" width="100mm" height="100mm" version="1.1" shape-rendering="geometricPrecision" text-rendering="geometricPrecision" image-rendering="optimizeQuality" fill-rule="evenodd" clip-rule="evenodd"
viewBox="0 0 10000 10000"
 xmlns:xlink="http://www.w3.org/1999/xlink"
 xmlns:xodm="http://www.corel.com/coreldraw/odm/2003">
 <g id="Capa_x0020_1">
  <metadata id="CorelCorpID_0Corel-Layer"/>
  <g id="_3181613695296">
   <circle fill="#7CA4DE" stroke="#7CA4DE" stroke-width="20" stroke-miterlimit="22.9256" cx="5000" cy="5000" r="5000"/>
   <g>
    <path fill="#95B5E4" fill-rule="nonzero" d="M2519.92 6508.25l0 -1017.01 2549.97 -4017.32 876.83 0 0 1407.7 -518.95 0 -1607.52 2544 0 47.72 3623.65 0 0 1034.91 -4923.98 0zm2931.72 1073.67l0 -1383.85 23.86 -450.35 0 -4273.8 1210.87 0 0 6108 -1234.73 0z" fillOpacity="0.2"/>
    <path fill="white" fill-rule="nonzero" d="M1328.38 7581.92l0 -3667.29 1468.35 0c269.8,0 494.83,40 675.09,119.96 180.24,80 315.75,191.03 406.48,333.09 90.73,140.84 136.1,303.21 136.1,487.06 0,143.25 -28.66,269.18 -85.95,377.83 -57.31,107.42 -136.11,195.78 -236.39,265 -99.08,68.05 -212.49,116.41 -340.21,145.06l0 35.81c139.66,5.98 270.37,45.35 392.15,118.17 122.95,72.83 222.63,174.91 299.05,306.22 76.39,130.13 114.6,285.32 114.6,465.56 0,194.6 -48.37,368.3 -145.04,521.1 -95.51,151.6 -236.98,271.59 -424.4,359.93 -187.42,88.33 -418.42,132.5 -692.99,132.5l-1566.84 0zm775.37 -633.9l632.1 0c216.08,0 373.66,-41.18 472.74,-123.55 99.07,-83.57 148.62,-194.58 148.62,-333.07 0,-101.46 -24.48,-191 -73.41,-268.6 -48.95,-77.59 -118.78,-138.49 -209.52,-182.65 -89.53,-44.18 -196.37,-66.25 -320.52,-66.25l-650.01 0 0 974.12zm0 -1498.79l574.8 0c106.25,0 200.55,-18.5 282.93,-55.52 83.56,-38.18 149.22,-91.9 196.97,-161.14 48.94,-69.25 73.41,-152.22 73.41,-248.91 0,-132.52 -47.15,-239.35 -141.45,-320.54 -93.12,-81.15 -225.63,-121.75 -397.53,-121.75l-589.13 0 0 907.86z" fillOpacity="0.8"/>
    <path fill="#B8D6FF" fill-rule="nonzero" d="M8834.8 5152.7l-784.31 0c-14.33,-101.47 -43.58,-191.61 -87.75,-270.38 -44.16,-80 -100.87,-148.05 -170.11,-204.16 -69.22,-56.09 -149.21,-99.06 -239.94,-128.93 -89.55,-29.84 -186.82,-44.76 -291.88,-44.76 -189.81,0 -355.16,47.17 -496.01,141.46 -140.86,93.13 -250.1,229.21 -327.7,408.28 -77.6,177.87 -116.38,393.94 -116.38,648.22 0,261.44 38.78,481.1 116.38,658.97 78.78,177.87 188.62,312.18 329.49,402.89 140.87,90.73 303.81,136.11 488.85,136.11 103.85,0 199.96,-13.73 288.3,-41.19 89.53,-27.46 168.92,-67.45 238.16,-119.99 69.22,-53.7 126.53,-118.77 171.9,-195.16 46.56,-76.43 78.78,-163.57 96.69,-261.46l784.31 3.6c-20.28,168.3 -71.03,330.67 -152.19,487.06 -79.99,155.2 -188.04,294.25 -324.12,417.22 -134.91,121.76 -296.06,218.45 -483.49,290.09 -186.22,70.43 -396.93,105.63 -632.1,105.63 -327.09,0 -619.56,-74 -877.42,-222.03 -256.66,-148.02 -459.6,-362.31 -608.84,-642.85 -148.02,-280.52 -222.03,-620.16 -222.03,-1018.89 0,-399.91 75.21,-740.15 225.63,-1020.67 150.4,-280.55 354.54,-494.24 612.39,-641.07 257.86,-148.02 547.97,-222.05 870.27,-222.05 212.5,0 409.48,29.87 590.92,89.55 182.65,59.68 344.4,146.83 485.27,261.43 140.87,113.42 255.48,252.5 343.81,417.22 89.52,164.75 146.83,353.37 171.9,565.86z"/>
   </g>
  </g>
 </g>
</svg>
